<svg width="175" height="163" viewBox="0 0 175 163" fill="none" xmlns="http://www.w3.org/2000/svg">
<g filter="url(#filter0_d_57_23)">
<path d="M136.416 100.862L136.268 46.8618C136.263 45.0716 137.022 43.3526 138.378 42.0831C139.735 40.8135 141.577 40.0973 143.5 40.092L157.999 40.0523C159.922 40.0471 161.768 40.7532 163.131 42.0153C164.494 43.2775 165.263 44.9923 165.268 46.7825L165.397 94.0323C165.402 95.8225 164.643 97.5415 163.287 98.8111C161.931 100.081 160.088 100.797 158.166 100.802L136.416 100.862ZM136.416 100.862C128.725 100.883 121.356 103.747 115.931 108.826C110.507 113.904 107.47 120.78 107.49 127.941L107.508 134.691C107.518 138.271 106 141.709 103.287 144.248C100.575 146.788 96.8908 148.22 93.0452 148.23C89.1996 148.241 85.5076 146.829 82.7814 144.304C80.0552 141.78 78.5181 138.351 78.5083 134.77L78.416 101.02L56.6661 101.08C52.8204 101.09 49.1284 99.6781 46.4022 97.1538C43.676 94.6295 42.139 91.1999 42.1292 87.6195L49.2868 53.8498C50.3181 49.706 52.2863 46.1449 54.8948 43.7029C57.5034 41.2609 60.6111 40.0702 63.7498 40.3102L114.5 40.1714C120.268 40.1556 125.806 42.2739 129.895 46.0603C133.985 49.8468 136.29 54.9912 136.305 60.3618" stroke="white" stroke-width="2" stroke-linecap="round" stroke-linejoin="round"/>
<path d="M78.9091 77.9731H76.3441L72.0541 71.4781V77.9731H69.4891V67.4431H72.0541L76.3441 73.9681V67.4431H78.9091V77.9731ZM80.2584 73.7731C80.2584 72.9131 80.4184 72.1581 80.7384 71.5081C81.0684 70.8581 81.5134 70.3581 82.0734 70.0081C82.6334 69.6581 83.2584 69.4831 83.9484 69.4831C84.5384 69.4831 85.0534 69.6031 85.4934 69.8431C85.9434 70.0831 86.2884 70.3981 86.5284 70.7881V69.6031H89.0934V77.9731H86.5284V76.7881C86.2784 77.1781 85.9284 77.4931 85.4784 77.7331C85.0384 77.9731 84.5234 78.0931 83.9334 78.0931C83.2534 78.0931 82.6334 77.9181 82.0734 77.5681C81.5134 77.2081 81.0684 76.7031 80.7384 76.0531C80.4184 75.3931 80.2584 74.6331 80.2584 73.7731ZM86.5284 73.7881C86.5284 73.1481 86.3484 72.6431 85.9884 72.2731C85.6384 71.9031 85.2084 71.7181 84.6984 71.7181C84.1884 71.7181 83.7534 71.9031 83.3934 72.2731C83.0434 72.6331 82.8684 73.1331 82.8684 73.7731C82.8684 74.4131 83.0434 74.9231 83.3934 75.3031C83.7534 75.6731 84.1884 75.8581 84.6984 75.8581C85.2084 75.8581 85.6384 75.6731 85.9884 75.3031C86.3484 74.9331 86.5284 74.4281 86.5284 73.7881ZM96.094 69.5131C97.054 69.5131 97.824 69.8331 98.404 70.4731C98.984 71.1031 99.274 71.9731 99.274 73.0831V77.9731H96.724V73.4281C96.724 72.8681 96.579 72.4331 96.289 72.1231C95.999 71.8131 95.609 71.6581 95.119 71.6581C94.629 71.6581 94.239 71.8131 93.949 72.1231C93.659 72.4331 93.514 72.8681 93.514 73.4281V77.9731H90.949V66.8731H93.514V70.7281C93.774 70.3581 94.129 70.0631 94.579 69.8431C95.029 69.6231 95.534 69.5131 96.094 69.5131ZM102.256 78.0931C101.806 78.0931 101.436 77.9631 101.146 77.7031C100.866 77.4331 100.726 77.1031 100.726 76.7131C100.726 76.3131 100.866 75.9781 101.146 75.7081C101.436 75.4381 101.806 75.3031 102.256 75.3031C102.696 75.3031 103.056 75.4381 103.336 75.7081C103.626 75.9781 103.771 76.3131 103.771 76.7131C103.771 77.1031 103.626 77.4331 103.336 77.7031C103.056 77.9631 102.696 78.0931 102.256 78.0931ZM106.49 78.0931C106.04 78.0931 105.67 77.9631 105.38 77.7031C105.1 77.4331 104.96 77.1031 104.96 76.7131C104.96 76.3131 105.1 75.9781 105.38 75.7081C105.67 75.4381 106.04 75.3031 106.49 75.3031C106.93 75.3031 107.29 75.4381 107.57 75.7081C107.86 75.9781 108.005 76.3131 108.005 76.7131C108.005 77.1031 107.86 77.4331 107.57 77.7031C107.29 77.9631 106.93 78.0931 106.49 78.0931ZM110.723 78.0931C110.273 78.0931 109.903 77.9631 109.613 77.7031C109.333 77.4331 109.193 77.1031 109.193 76.7131C109.193 76.3131 109.333 75.9781 109.613 75.7081C109.903 75.4381 110.273 75.3031 110.723 75.3031C111.163 75.3031 111.523 75.4381 111.803 75.7081C112.093 75.9781 112.238 76.3131 112.238 76.7131C112.238 77.1031 112.093 77.4331 111.803 77.7031C111.523 77.9631 111.163 78.0931 110.723 78.0931ZM114.957 78.0931C114.507 78.0931 114.137 77.9631 113.847 77.7031C113.567 77.4331 113.427 77.1031 113.427 76.7131C113.427 76.3131 113.567 75.9781 113.847 75.7081C114.137 75.4381 114.507 75.3031 114.957 75.3031C115.397 75.3031 115.757 75.4381 116.037 75.7081C116.327 75.9781 116.472 76.3131 116.472 76.7131C116.472 77.1031 116.327 77.4331 116.037 77.7031C115.757 77.9631 115.397 78.0931 114.957 78.0931ZM119.19 78.0931C118.74 78.0931 118.37 77.9631 118.08 77.7031C117.8 77.4331 117.66 77.1031 117.66 76.7131C117.66 76.3131 117.8 75.9781 118.08 75.7081C118.37 75.4381 118.74 75.3031 119.19 75.3031C119.63 75.3031 119.99 75.4381 120.27 75.7081C120.56 75.9781 120.705 76.3131 120.705 76.7131C120.705 77.1031 120.56 77.4331 120.27 77.7031C119.99 77.9631 119.63 78.0931 119.19 78.0931Z" fill="white"/>
</g>
<defs>
<filter id="filter0_d_57_23" x="-4" y="0" width="182.442" height="170.475" filterUnits="userSpaceOnUse" color-interpolation-filters="sRGB">
<feFlood flood-opacity="0" result="BackgroundImageFix"/>
<feColorMatrix in="SourceAlpha" type="matrix" values="0 0 0 0 0 0 0 0 0 0 0 0 0 0 0 0 0 0 127 0" result="hardAlpha"/>
<feOffset dy="4"/>
<feGaussianBlur stdDeviation="2"/>
<feComposite in2="hardAlpha" operator="out"/>
<feColorMatrix type="matrix" values="0 0 0 0 0 0 0 0 0 0 0 0 0 0 0 0 0 0 0.25 0"/>
<feBlend mode="normal" in2="BackgroundImageFix" result="effect1_dropShadow_57_23"/>
<feBlend mode="normal" in="SourceGraphic" in2="effect1_dropShadow_57_23" result="shape"/>
</filter>
</defs>
</svg>
