<svg width="174" height="162" viewBox="0 0 174 162" fill="none" xmlns="http://www.w3.org/2000/svg">
<g filter="url(#filter0_d_78_13)">
<path d="M50.75 74.25V128.25C50.75 130.04 49.9862 131.757 48.6265 133.023C47.2669 134.289 45.4228 135 43.5 135H29C27.0772 135 25.2331 134.289 23.8735 133.023C22.5138 131.757 21.75 130.04 21.75 128.25V81C21.75 79.2098 22.5138 77.4929 23.8735 76.227C25.2331 74.9612 27.0772 74.25 29 74.25H50.75ZM50.75 74.25C58.4413 74.25 65.8175 71.4054 71.2561 66.3419C76.6947 61.2784 79.75 54.4108 79.75 47.25V40.5C79.75 36.9196 81.2777 33.4858 83.997 30.9541C86.7162 28.4223 90.4044 27 94.25 27C98.0956 27 101.784 28.4223 104.503 30.9541C107.222 33.4858 108.75 36.9196 108.75 40.5V74.25H130.5C134.346 74.25 138.034 75.6723 140.753 78.2041C143.472 80.7358 145 84.1696 145 87.75L137.75 121.5C136.707 125.641 134.729 129.197 132.114 131.632C129.499 134.066 126.388 135.249 123.25 135H72.5C66.7315 135 61.1993 132.867 57.1204 129.069C53.0415 125.271 50.75 120.121 50.75 114.75" stroke="white" stroke-width="2" stroke-linecap="round" stroke-linejoin="round"/>
<path d="M73.5176 86.47V97H70.9526V90.685L68.5976 97H66.5276L64.1576 90.67V97H61.5926V86.47H64.6226L67.5776 93.76L70.5026 86.47H73.5176ZM74.8521 92.8C74.8521 91.94 75.0121 91.185 75.3321 90.535C75.6621 89.885 76.1071 89.385 76.6671 89.035C77.2271 88.685 77.8521 88.51 78.5421 88.51C79.1321 88.51 79.6471 88.63 80.0871 88.87C80.5371 89.11 80.8821 89.425 81.1221 89.815V88.63H83.6871V97H81.1221V95.815C80.8721 96.205 80.5221 96.52 80.0721 96.76C79.6321 97 79.1171 97.12 78.5271 97.12C77.8471 97.12 77.2271 96.945 76.6671 96.595C76.1071 96.235 75.6621 95.73 75.3321 95.08C75.0121 94.42 74.8521 93.66 74.8521 92.8ZM81.1221 92.815C81.1221 92.175 80.9421 91.67 80.5821 91.3C80.2321 90.93 79.8021 90.745 79.2921 90.745C78.7821 90.745 78.3471 90.93 77.9871 91.3C77.6371 91.66 77.4621 92.16 77.4621 92.8C77.4621 93.44 77.6371 93.95 77.9871 94.33C78.3471 94.7 78.7821 94.885 79.2921 94.885C79.8021 94.885 80.2321 94.7 80.5821 94.33C80.9421 93.96 81.1221 93.455 81.1221 92.815ZM85.0328 92.8C85.0328 91.94 85.1928 91.185 85.5128 90.535C85.8428 89.885 86.2878 89.385 86.8478 89.035C87.4078 88.685 88.0328 88.51 88.7228 88.51C89.2728 88.51 89.7728 88.625 90.2228 88.855C90.6828 89.085 91.0428 89.395 91.3028 89.785V85.9H93.8678V97H91.3028V95.8C91.0628 96.2 90.7178 96.52 90.2678 96.76C89.8278 97 89.3128 97.12 88.7228 97.12C88.0328 97.12 87.4078 96.945 86.8478 96.595C86.2878 96.235 85.8428 95.73 85.5128 95.08C85.1928 94.42 85.0328 93.66 85.0328 92.8ZM91.3028 92.815C91.3028 92.175 91.1228 91.67 90.7628 91.3C90.4128 90.93 89.9828 90.745 89.4728 90.745C88.9628 90.745 88.5278 90.93 88.1678 91.3C87.8178 91.66 87.6428 92.16 87.6428 92.8C87.6428 93.44 87.8178 93.95 88.1678 94.33C88.5278 94.7 88.9628 94.885 89.4728 94.885C89.9828 94.885 90.4128 94.7 90.7628 94.33C91.1228 93.96 91.3028 93.455 91.3028 92.815ZM103.613 92.68C103.613 92.92 103.598 93.17 103.568 93.43H97.7635C97.8035 93.95 97.9685 94.35 98.2585 94.63C98.5585 94.9 98.9235 95.035 99.3535 95.035C99.9935 95.035 100.438 94.765 100.688 94.225H103.418C103.278 94.775 103.023 95.27 102.653 95.71C102.293 96.15 101.838 96.495 101.288 96.745C100.738 96.995 100.123 97.12 99.4435 97.12C98.6235 97.12 97.8935 96.945 97.2535 96.595C96.6135 96.245 96.1135 95.745 95.7535 95.095C95.3935 94.445 95.2135 93.685 95.2135 92.815C95.2135 91.945 95.3885 91.185 95.7385 90.535C96.0985 89.885 96.5985 89.385 97.2385 89.035C97.8785 88.685 98.6135 88.51 99.4435 88.51C100.253 88.51 100.973 88.68 101.603 89.02C102.233 89.36 102.723 89.845 103.073 90.475C103.433 91.105 103.613 91.84 103.613 92.68ZM100.988 92.005C100.988 91.565 100.838 91.215 100.538 90.955C100.238 90.695 99.8635 90.565 99.4135 90.565C98.9835 90.565 98.6185 90.69 98.3185 90.94C98.0285 91.19 97.8485 91.545 97.7785 92.005H100.988ZM118.825 88.54C119.865 88.54 120.69 88.855 121.3 89.485C121.92 90.115 122.23 90.99 122.23 92.11V97H119.68V92.455C119.68 91.915 119.535 91.5 119.245 91.21C118.965 90.91 118.575 90.76 118.075 90.76C117.575 90.76 117.18 90.91 116.89 91.21C116.61 91.5 116.47 91.915 116.47 92.455V97H113.92V92.455C113.92 91.915 113.775 91.5 113.485 91.21C113.205 90.91 112.815 90.76 112.315 90.76C111.815 90.76 111.42 90.91 111.13 91.21C110.85 91.5 110.71 91.915 110.71 92.455V97H108.145V88.63H110.71V89.68C110.97 89.33 111.31 89.055 111.73 88.855C112.15 88.645 112.625 88.54 113.155 88.54C113.785 88.54 114.345 88.675 114.835 88.945C115.335 89.215 115.725 89.6 116.005 90.1C116.295 89.64 116.69 89.265 117.19 88.975C117.69 88.685 118.235 88.54 118.825 88.54ZM131.914 92.68C131.914 92.92 131.899 93.17 131.869 93.43H126.064C126.104 93.95 126.269 94.35 126.559 94.63C126.859 94.9 127.224 95.035 127.654 95.035C128.294 95.035 128.739 94.765 128.989 94.225H131.719C131.579 94.775 131.324 95.27 130.954 95.71C130.594 96.15 130.139 96.495 129.589 96.745C129.039 96.995 128.424 97.12 127.744 97.12C126.924 97.12 126.194 96.945 125.554 96.595C124.914 96.245 124.414 95.745 124.054 95.095C123.694 94.445 123.514 93.685 123.514 92.815C123.514 91.945 123.689 91.185 124.039 90.535C124.399 89.885 124.899 89.385 125.539 89.035C126.179 88.685 126.914 88.51 127.744 88.51C128.554 88.51 129.274 88.68 129.904 89.02C130.534 89.36 131.024 89.845 131.374 90.475C131.734 91.105 131.914 91.84 131.914 92.68ZM129.289 92.005C129.289 91.565 129.139 91.215 128.839 90.955C128.539 90.695 128.164 90.565 127.714 90.565C127.284 90.565 126.919 90.69 126.619 90.94C126.329 91.19 126.149 91.545 126.079 92.005H129.289ZM74.558 108.9V120H71.993V108.9H74.558ZM75.9068 115.8C75.9068 114.94 76.0668 114.185 76.3868 113.535C76.7168 112.885 77.1618 112.385 77.7218 112.035C78.2818 111.685 78.9068 111.51 79.5968 111.51C80.1868 111.51 80.7018 111.63 81.1418 111.87C81.5918 112.11 81.9368 112.425 82.1768 112.815V111.63H84.7418V120H82.1768V118.815C81.9268 119.205 81.5768 119.52 81.1268 119.76C80.6868 120 80.1718 120.12 79.5818 120.12C78.9018 120.12 78.2818 119.945 77.7218 119.595C77.1618 119.235 76.7168 118.73 76.3868 118.08C76.0668 117.42 75.9068 116.66 75.9068 115.8ZM82.1768 115.815C82.1768 115.175 81.9968 114.67 81.6368 114.3C81.2868 113.93 80.8568 113.745 80.3468 113.745C79.8368 113.745 79.4018 113.93 79.0418 114.3C78.6918 114.66 78.5168 115.16 78.5168 115.8C78.5168 116.44 78.6918 116.95 79.0418 117.33C79.4018 117.7 79.8368 117.885 80.3468 117.885C80.8568 117.885 81.2868 117.7 81.6368 117.33C81.9968 116.96 82.1768 116.455 82.1768 115.815ZM94.8625 111.63V120H92.2975V118.86C92.0375 119.23 91.6825 119.53 91.2325 119.76C90.7925 119.98 90.3025 120.09 89.7625 120.09C89.1225 120.09 88.5575 119.95 88.0675 119.67C87.5775 119.38 87.1975 118.965 86.9275 118.425C86.6575 117.885 86.5225 117.25 86.5225 116.52V111.63H89.0725V116.175C89.0725 116.735 89.2175 117.17 89.5075 117.48C89.7975 117.79 90.1875 117.945 90.6775 117.945C91.1775 117.945 91.5725 117.79 91.8625 117.48C92.1525 117.17 92.2975 116.735 92.2975 116.175V111.63H94.8625ZM99.8849 111.51C100.475 111.51 100.99 111.63 101.43 111.87C101.88 112.11 102.225 112.425 102.465 112.815V111.63H105.03V119.985C105.03 120.755 104.875 121.45 104.565 122.07C104.265 122.7 103.8 123.2 103.17 123.57C102.55 123.94 101.775 124.125 100.845 124.125C99.6049 124.125 98.5999 123.83 97.8299 123.24C97.0599 122.66 96.6199 121.87 96.5099 120.87H99.0449C99.1249 121.19 99.3149 121.44 99.6149 121.62C99.9149 121.81 100.285 121.905 100.725 121.905C101.255 121.905 101.675 121.75 101.985 121.44C102.305 121.14 102.465 120.655 102.465 119.985V118.8C102.215 119.19 101.87 119.51 101.43 119.76C100.99 120 100.475 120.12 99.8849 120.12C99.1949 120.12 98.5699 119.945 98.0099 119.595C97.4499 119.235 97.0049 118.73 96.6749 118.08C96.3549 117.42 96.1949 116.66 96.1949 115.8C96.1949 114.94 96.3549 114.185 96.6749 113.535C97.0049 112.885 97.4499 112.385 98.0099 112.035C98.5699 111.685 99.1949 111.51 99.8849 111.51ZM102.465 115.815C102.465 115.175 102.285 114.67 101.925 114.3C101.575 113.93 101.145 113.745 100.635 113.745C100.125 113.745 99.6899 113.93 99.3299 114.3C98.9799 114.66 98.8049 115.16 98.8049 115.8C98.8049 116.44 98.9799 116.95 99.3299 117.33C99.6899 117.7 100.125 117.885 100.635 117.885C101.145 117.885 101.575 117.7 101.925 117.33C102.285 116.96 102.465 116.455 102.465 115.815ZM112.031 111.54C112.991 111.54 113.761 111.86 114.341 112.5C114.921 113.13 115.211 114 115.211 115.11V120H112.661V115.455C112.661 114.895 112.516 114.46 112.226 114.15C111.936 113.84 111.546 113.685 111.056 113.685C110.566 113.685 110.176 113.84 109.886 114.15C109.596 114.46 109.451 114.895 109.451 115.455V120H106.886V108.9H109.451V112.755C109.711 112.385 110.066 112.09 110.516 111.87C110.966 111.65 111.471 111.54 112.031 111.54ZM120.368 109.095L120.068 116.28H117.893L117.593 109.095H120.368ZM119.018 120.12C118.568 120.12 118.198 119.99 117.908 119.73C117.628 119.46 117.488 119.13 117.488 118.74C117.488 118.34 117.628 118.005 117.908 117.735C118.198 117.465 118.568 117.33 119.018 117.33C119.458 117.33 119.818 117.465 120.098 117.735C120.388 118.005 120.533 118.34 120.533 118.74C120.533 119.13 120.388 119.46 120.098 119.73C119.818 119.99 119.458 120.12 119.018 120.12Z" fill="white"/>
</g>
<defs>
<filter id="filter0_d_78_13" x="-4" y="0" width="182" height="170" filterUnits="userSpaceOnUse" color-interpolation-filters="sRGB">
<feFlood flood-opacity="0" result="BackgroundImageFix"/>
<feColorMatrix in="SourceAlpha" type="matrix" values="0 0 0 0 0 0 0 0 0 0 0 0 0 0 0 0 0 0 127 0" result="hardAlpha"/>
<feOffset dy="4"/>
<feGaussianBlur stdDeviation="2"/>
<feComposite in2="hardAlpha" operator="out"/>
<feColorMatrix type="matrix" values="0 0 0 0 0 0 0 0 0 0 0 0 0 0 0 0 0 0 0.25 0"/>
<feBlend mode="normal" in2="BackgroundImageFix" result="effect1_dropShadow_78_13"/>
<feBlend mode="normal" in="SourceGraphic" in2="effect1_dropShadow_78_13" result="shape"/>
</filter>
</defs>
</svg>
