<svg width="304" height="220" viewBox="0 0 304 220" fill="none" xmlns="http://www.w3.org/2000/svg">
<ellipse cx="151.969" cy="110" rx="106.497" ry="110" fill="url(#paint0_radial_112_14)"/>
<path d="M94.3536 103V60.1H97.2336V100.36H116.974V103H94.3536ZM125.509 103V64.06H143.689V66.46H128.269V80.62H142.189V82.96H128.269V100.48H144.289V103H125.509ZM162.293 66.52H149.093V64.06H178.193V66.52H164.993V103H162.293V66.52ZM183.1 60.1H186.28V63.04L183.76 67.66H182.38L183.1 64V60.1ZM203.505 65.74C201.345 65.74 199.585 66.26 198.225 67.3C196.865 68.34 196.185 69.8 196.185 71.68C196.185 73.84 197.085 75.78 198.885 77.5C200.165 78.74 201.805 80.06 203.805 81.46C205.845 82.82 207.245 83.8 208.005 84.4C208.765 85 209.685 85.82 210.765 86.86C212.725 88.82 213.705 91.08 213.705 93.64C213.705 96.96 212.585 99.48 210.345 101.2C208.145 102.88 205.045 103.72 201.045 103.72C197.085 103.72 193.765 102.68 191.085 100.6L192.525 98.5C195.245 100.34 198.125 101.26 201.165 101.26C204.205 101.26 206.565 100.62 208.245 99.34C209.965 98.06 210.825 96.26 210.825 93.94C210.825 91.94 209.965 90.1 208.245 88.42C207.045 87.22 205.425 85.92 203.385 84.52C201.385 83.12 199.985 82.12 199.185 81.52C198.385 80.88 197.445 80.04 196.365 79C194.325 76.96 193.305 74.6 193.305 71.92C193.305 69.24 194.245 67.14 196.125 65.62C198.045 64.1 200.685 63.34 204.045 63.34C207.405 63.34 210.425 64 213.105 65.32L212.085 67.54C209.605 66.34 206.745 65.74 203.505 65.74ZM120.353 130.92C115.913 130.92 112.173 132.62 109.133 136.02C106.133 139.38 104.633 143.52 104.633 148.44C104.633 153.36 106.333 157.54 109.733 160.98C113.133 164.38 117.133 166.08 121.733 166.08C126.373 166.08 129.973 165.54 132.533 164.46V148.44H135.293V165.72C132.173 167.64 127.753 168.6 122.033 168.6C116.313 168.6 111.493 166.66 107.573 162.78C103.653 158.9 101.693 154.14 101.693 148.5C101.693 142.82 103.453 138.06 106.973 134.22C110.533 130.38 115.113 128.46 120.713 128.46C125.233 128.46 129.653 129.16 133.973 130.56L133.253 132.84C129.093 131.56 124.793 130.92 120.353 130.92ZM165.609 168.6C160.049 168.6 155.389 166.66 151.629 162.78C147.869 158.9 145.989 154.16 145.989 148.56C145.989 142.92 147.869 138.16 151.629 134.28C155.389 130.4 160.049 128.46 165.609 128.46C171.169 128.46 175.829 130.4 179.589 134.28C183.349 138.16 185.229 142.92 185.229 148.56C185.229 154.16 183.349 158.9 179.589 162.78C175.829 166.66 171.169 168.6 165.609 168.6ZM165.609 130.92C160.809 130.92 156.809 132.62 153.609 136.02C150.449 139.42 148.869 143.6 148.869 148.56C148.869 153.48 150.449 157.64 153.609 161.04C156.809 164.4 160.809 166.08 165.609 166.08C170.449 166.08 174.449 164.4 177.609 161.04C180.769 157.64 182.349 153.48 182.349 148.56C182.349 143.6 180.769 139.42 177.609 136.02C174.449 132.62 170.449 130.92 165.609 130.92ZM197.197 168.18C196.837 167.82 196.657 167.36 196.657 166.8C196.657 166.24 196.837 165.78 197.197 165.42C197.557 165.06 198.017 164.88 198.577 164.88C199.137 164.88 199.597 165.06 199.957 165.42C200.317 165.78 200.497 166.24 200.497 166.8C200.497 167.36 200.317 167.82 199.957 168.18C199.597 168.54 199.137 168.72 198.577 168.72C198.017 168.72 197.557 168.54 197.197 168.18ZM197.497 159L197.197 129H199.957L199.657 159H197.497Z" fill="#6B0848"/>
<defs>
<radialGradient id="paint0_radial_112_14" cx="0" cy="0" r="1" gradientUnits="userSpaceOnUse" gradientTransform="translate(151.969 110) rotate(90) scale(110 106.497)">
<stop offset="0.75" stop-color="#59D8F4"/>
<stop offset="1" stop-color="#59D8F4" stop-opacity="0"/>
</radialGradient>
</defs>
</svg>
