<svg width="314" height="220" viewBox="0 0 314 220" fill="none" xmlns="http://www.w3.org/2000/svg">
<circle cx="158" cy="110" r="110" fill="url(#paint0_radial_78_15)"/>
<path d="M86.142 90.536L86.27 95.976V129H83.198V82.856H84.606L114.75 117.608C116.798 120.04 118.377 121.981 119.486 123.432C119.315 121.384 119.23 119.037 119.23 116.392V83.24H122.302V129.384H120.894L90.174 93.992C88.0407 91.56 86.6753 89.9387 86.078 89.128L86.142 90.536ZM139.198 129V83.24H160.446V85.928H142.27V102.76H158.718V105.384H142.27V126.312H161.15V129H139.198ZM168.392 83.24H172.168L184.456 103.336L197.256 83.24H200.648L185.928 105.704L200.712 129H197L183.816 107.752L170.056 129H166.664L182.28 105.32L168.392 83.24ZM219.271 85.928H203.783V83.24H237.831V85.928H222.343V129H219.271V85.928Z" fill="#6B0848"/>
<defs>
<radialGradient id="paint0_radial_78_15" cx="0" cy="0" r="1" gradientUnits="userSpaceOnUse" gradientTransform="translate(158 110) rotate(90) scale(110)">
<stop offset="0.75" stop-color="#59D8F4"/>
<stop offset="1" stop-color="#59D8F4" stop-opacity="0"/>
</radialGradient>
</defs>
</svg>
