<svg width="91" height="89" viewBox="0 0 91 89" fill="none" xmlns="http://www.w3.org/2000/svg">
<ellipse cx="45.5" cy="44.5" rx="45.5" ry="44.5" fill="url(#paint0_radial_107_2)"/>
<path d="M54.8333 62C53.3981 62 52.1782 61.475 51.1736 60.425C50.169 59.375 49.6667 58.1 49.6667 56.6C49.6667 56.39 49.681 56.1722 49.7097 55.9466C49.7384 55.7222 49.7815 55.52 49.8389 55.34L37.6972 47.96C37.2093 48.41 36.6639 48.7622 36.0611 49.0166C35.4583 49.2722 34.8269 49.4 34.1667 49.4C32.7315 49.4 31.5116 48.875 30.5069 47.825C29.5023 46.775 29 45.5 29 44C29 42.5 29.5023 41.225 30.5069 40.175C31.5116 39.125 32.7315 38.6 34.1667 38.6C34.8269 38.6 35.4583 38.7272 36.0611 38.9816C36.6639 39.2372 37.2093 39.59 37.6972 40.04L49.8389 32.66C49.7815 32.48 49.7384 32.2778 49.7097 32.0534C49.681 31.8278 49.6667 31.61 49.6667 31.4C49.6667 29.9 50.169 28.625 51.1736 27.575C52.1782 26.525 53.3981 26 54.8333 26C56.2685 26 57.4884 26.525 58.4931 27.575C59.4977 28.625 60 29.9 60 31.4C60 32.9 59.4977 34.175 58.4931 35.225C57.4884 36.275 56.2685 36.8 54.8333 36.8C54.1731 36.8 53.5417 36.6722 52.9389 36.4166C52.3361 36.1622 51.7907 35.81 51.3028 35.36L39.1611 42.74C39.2185 42.92 39.2616 43.1222 39.2903 43.3466C39.319 43.5722 39.3333 43.79 39.3333 44C39.3333 44.21 39.319 44.4272 39.2903 44.6516C39.2616 44.8772 39.2185 45.08 39.1611 45.26L51.3028 52.64C51.7907 52.19 52.3361 51.8372 52.9389 51.5816C53.5417 51.3272 54.1731 51.2 54.8333 51.2C56.2685 51.2 57.4884 51.725 58.4931 52.775C59.4977 53.825 60 55.1 60 56.6C60 58.1 59.4977 59.375 58.4931 60.425C57.4884 61.475 56.2685 62 54.8333 62Z" fill="#FB89CD"/>
<defs>
<radialGradient id="paint0_radial_107_2" cx="0" cy="0" r="1" gradientUnits="userSpaceOnUse" gradientTransform="translate(45.5 44.5) rotate(90) scale(44.5 45.5)">
<stop offset="0.75" stop-color="#CDF0EA"/>
<stop offset="1" stop-color="#59D8F4" stop-opacity="0"/>
</radialGradient>
</defs>
</svg>
